<svg width="30" height="30" viewBox="0 0 30 30" fill="none" xmlns="http://www.w3.org/2000/svg">
<path d="M18.6038 3.75875L18.7225 3.75L18.8625 3.755L19.0037 3.77625L19.145 3.81375L26.645 6.31375C26.8704 6.38891 27.0698 6.52678 27.2197 6.7112C27.3696 6.89562 27.4638 7.11895 27.4912 7.355L27.5 7.5V13.75C27.5 14.0562 27.3876 14.3517 27.1841 14.5805C26.9807 14.8093 26.7003 14.9554 26.3963 14.9912L26.25 15H23.75V23.75C23.7502 24.3807 23.512 24.9882 23.0831 25.4507C22.6543 25.9132 22.0664 26.1964 21.4375 26.2437L21.25 26.25H8.75C8.11928 26.2502 7.51179 26.012 7.04931 25.5831C6.58684 25.1543 6.30355 24.5664 6.25625 23.9375L6.25 23.75V15H3.75C3.44383 15 3.14833 14.8876 2.91954 14.6841C2.69074 14.4807 2.54457 14.2003 2.50875 13.8962L2.5 13.75V7.5C2.49992 7.2623 2.56761 7.02952 2.69514 6.82893C2.82266 6.62835 3.00473 6.46828 3.22 6.3675L3.355 6.31375L10.855 3.81375C11.0429 3.75116 11.243 3.73412 11.4388 3.76404C11.6346 3.79395 11.8205 3.86997 11.9811 3.98582C12.1418 4.10167 12.2726 4.25403 12.3628 4.43036C12.453 4.60669 12.5 4.80193 12.5 5C12.4971 5.64872 12.7465 6.27318 13.1955 6.74144C13.6445 7.20969 14.2579 7.48508 14.9062 7.50942C15.5545 7.53376 16.1868 7.30515 16.6696 6.87188C17.1525 6.43861 17.448 5.83462 17.4937 5.1875L17.505 4.8875L17.5262 4.74625L17.5725 4.57875L17.6275 4.45L17.69 4.335L17.775 4.21875L17.8612 4.11875C17.9304 4.05208 18.0033 3.99375 18.08 3.94375L18.2 3.8775L18.3288 3.8225L18.4637 3.7825L18.6038 3.75875Z" fill="#EBD7C1"/>
</svg>
