<svg width="35" height="35" viewBox="0 0 35 35" fill="none" xmlns="http://www.w3.org/2000/svg">
<circle cx="17.5" cy="17.5" r="17.5" fill="#A31D1D"/>
<path d="M21.667 14.5833C22.3573 14.5833 22.917 14.0236 22.917 13.3333C22.917 12.6429 22.3573 12.0833 21.667 12.0833C20.9766 12.0833 20.417 12.6429 20.417 13.3333C20.417 14.0236 20.9766 14.5833 21.667 14.5833Z" fill="white"/>
<path d="M20.8333 9.99988C23.1333 9.99988 25 11.8665 25 14.1665V20.8332C25 23.1332 23.1333 24.9999 20.8333 24.9999H14.1667C11.8667 24.9999 10 23.1332 10 20.8332V14.1665C10 11.8665 11.8667 9.99988 14.1667 9.99988H17.5H20.8333Z" stroke="white" stroke-width="2.64993" stroke-linecap="round" stroke-linejoin="round"/>
<path d="M17.5003 14.1664C19.342 14.1664 20.8337 15.658 20.8337 17.4997C20.8337 19.3414 19.342 20.833 17.5003 20.833C15.6587 20.833 14.167 19.3414 14.167 17.4997C14.167 15.658 15.6587 14.1664 17.5003 14.1664Z" stroke="white" stroke-width="2.64993" stroke-linecap="round" stroke-linejoin="round"/>
</svg>
