<svg width="35" height="35" viewBox="0 0 35 35" fill="none" xmlns="http://www.w3.org/2000/svg">
<circle cx="17.5" cy="17.5" r="17.5" fill="#A31D1D"/>
<path d="M21.3335 12.3499C20.7639 11.6995 20.45 10.8644 20.4501 9.99988H17.8751V20.3332C17.8557 20.8925 17.6197 21.4224 17.2171 21.8111C16.8144 22.1998 16.2765 22.4169 15.7168 22.4165C14.5335 22.4165 13.5501 21.4499 13.5501 20.2499C13.5501 18.8165 14.9335 17.7415 16.3585 18.1832V15.5499C13.4835 15.1665 10.9668 17.3999 10.9668 20.2499C10.9668 23.0249 13.2668 24.9999 15.7085 24.9999C18.3251 24.9999 20.4501 22.8749 20.4501 20.2499V15.0082C21.4943 15.7581 22.7479 16.1604 24.0335 16.1582V13.5832C24.0335 13.5832 22.4668 13.6582 21.3335 12.3499Z" fill="white"/>
</svg>
